<svg width="26" height="30" viewBox="0 0 26 30" fill="none" xmlns="http://www.w3.org/2000/svg">
<g filter="url(#filter0_di_57_8169)">
<path fill-rule="evenodd" clip-rule="evenodd" d="M10.8321 23.9713C10.8321 23.9713 19.6642 15.2633 19.6642 10.5444C19.6642 5.82545 15.7099 2 10.8321 2C5.95426 2 2 5.82545 2 10.5444C2 15.2633 10.8321 23.9713 10.8321 23.9713ZM10.8321 14.0842C12.6613 14.0842 14.1441 12.6087 14.1441 10.7885C14.1441 8.96835 12.6613 7.49282 10.8321 7.49282C9.0029 7.49282 7.52005 8.96835 7.52005 10.7885C7.52005 12.6087 9.0029 14.0842 10.8321 14.0842Z" fill="url(#paint0_linear_57_8169)"/>
</g>
<defs>
<filter id="filter0_di_57_8169" x="0" y="0" width="25.6641" height="29.9712" filterUnits="userSpaceOnUse" color-interpolation-filters="sRGB">
<feFlood flood-opacity="0" result="BackgroundImageFix"/>
<feColorMatrix in="SourceAlpha" type="matrix" values="0 0 0 0 0 0 0 0 0 0 0 0 0 0 0 0 0 0 127 0" result="hardAlpha"/>
<feOffset dx="2" dy="2"/>
<feGaussianBlur stdDeviation="2"/>
<feComposite in2="hardAlpha" operator="out"/>
<feColorMatrix type="matrix" values="0 0 0 0 0.6625 0 0 0 0 0.609132 0 0 0 0 0.502396 0 0 0 0.5 0"/>
<feBlend mode="normal" in2="BackgroundImageFix" result="effect1_dropShadow_57_8169"/>
<feBlend mode="normal" in="SourceGraphic" in2="effect1_dropShadow_57_8169" result="shape"/>
<feColorMatrix in="SourceAlpha" type="matrix" values="0 0 0 0 0 0 0 0 0 0 0 0 0 0 0 0 0 0 127 0" result="hardAlpha"/>
<feOffset dx="-2" dy="-2"/>
<feGaussianBlur stdDeviation="2.5"/>
<feComposite in2="hardAlpha" operator="arithmetic" k2="-1" k3="1"/>
<feColorMatrix type="matrix" values="0 0 0 0 0.241667 0 0 0 0 0.101145 0 0 0 0 0.0714931 0 0 0 0.8 0"/>
<feBlend mode="normal" in2="shape" result="effect2_innerShadow_57_8169"/>
</filter>
<linearGradient id="paint0_linear_57_8169" x1="7.52005" y1="7.49282" x2="14.1114" y2="14.1168" gradientUnits="userSpaceOnUse">
<stop stop-color="#A73822"/>
<stop offset="1" stop-color="#881903"/>
<stop offset="1" stop-color="#881903"/>
</linearGradient>
</defs>
</svg>
