<svg width="28" height="35" viewBox="0 0 28 35" fill="none" xmlns="http://www.w3.org/2000/svg">
<g filter="url(#filter0_dii_1_2168)">
<path fill-rule="evenodd" clip-rule="evenodd" d="M14.4702 3.77783C14.4702 2.9494 13.7986 2.27783 12.9702 2.27783C12.1417 2.27783 11.4702 2.9494 11.4702 3.77783V7.39379C11.4702 7.80969 11.6428 8.20692 11.947 8.49063L12.2685 8.79063C12.1793 8.78828 12.0898 8.7871 12 8.7871C6.47715 8.7871 2 13.2642 2 18.7871C2 24.3099 6.47715 28.7871 12 28.7871C17.5228 28.7871 22 24.3099 22 18.7871C22 15.1745 20.0844 12.0094 17.2135 10.252C17.3041 9.7647 17.1513 9.24294 16.762 8.87979L14.4702 6.74175V3.77783ZM17.2135 10.252C15.7668 9.36642 14.0775 8.83833 12.2685 8.79063L14.7156 11.0735C15.3214 11.6386 16.2706 11.6056 16.8357 10.9998C17.0376 10.7833 17.1632 10.523 17.2135 10.252Z" fill="url(#paint0_linear_1_2168)"/>
</g>
<defs>
<filter id="filter0_dii_1_2168" x="0" y="0.277832" width="28" height="34.5093" filterUnits="userSpaceOnUse" color-interpolation-filters="sRGB">
<feFlood flood-opacity="0" result="BackgroundImageFix"/>
<feColorMatrix in="SourceAlpha" type="matrix" values="0 0 0 0 0 0 0 0 0 0 0 0 0 0 0 0 0 0 127 0" result="hardAlpha"/>
<feOffset dx="2" dy="2"/>
<feGaussianBlur stdDeviation="2"/>
<feComposite in2="hardAlpha" operator="out"/>
<feColorMatrix type="matrix" values="0 0 0 0 0.662745 0 0 0 0 0.607843 0 0 0 0 0.501961 0 0 0 0.5 0"/>
<feBlend mode="normal" in2="BackgroundImageFix" result="effect1_dropShadow_1_2168"/>
<feBlend mode="normal" in="SourceGraphic" in2="effect1_dropShadow_1_2168" result="shape"/>
<feColorMatrix in="SourceAlpha" type="matrix" values="0 0 0 0 0 0 0 0 0 0 0 0 0 0 0 0 0 0 127 0" result="hardAlpha"/>
<feOffset dx="1" dy="1"/>
<feGaussianBlur stdDeviation="0.5"/>
<feComposite in2="hardAlpha" operator="arithmetic" k2="-1" k3="1"/>
<feColorMatrix type="matrix" values="0 0 0 0 0.45098 0 0 0 0 0.145098 0 0 0 0 0.0470588 0 0 0 1 0"/>
<feBlend mode="normal" in2="shape" result="effect2_innerShadow_1_2168"/>
<feColorMatrix in="SourceAlpha" type="matrix" values="0 0 0 0 0 0 0 0 0 0 0 0 0 0 0 0 0 0 127 0" result="hardAlpha"/>
<feOffset dx="-2" dy="-2"/>
<feGaussianBlur stdDeviation="2.5"/>
<feComposite in2="hardAlpha" operator="arithmetic" k2="-1" k3="1"/>
<feColorMatrix type="matrix" values="0 0 0 0 0.243137 0 0 0 0 0.101961 0 0 0 0 0.0705882 0 0 0 0.8 0"/>
<feBlend mode="normal" in2="effect2_innerShadow_1_2168" result="effect3_innerShadow_1_2168"/>
</filter>
<linearGradient id="paint0_linear_1_2168" x1="12" y1="2.27783" x2="12" y2="28.7871" gradientUnits="userSpaceOnUse">
<stop stop-color="#B1290F"/>
<stop offset="1" stop-color="#881903"/>
</linearGradient>
</defs>
</svg>
