<svg width="28" height="28" viewBox="0 0 28 28" fill="none" xmlns="http://www.w3.org/2000/svg">
<g filter="url(#filter0_di_57_8162)">
<path fill-rule="evenodd" clip-rule="evenodd" d="M12 22C17.5228 22 22 17.5228 22 12C22 6.47715 17.5228 2 12 2C6.47715 2 2 6.47715 2 12C2 17.5228 6.47715 22 12 22ZM8.23197 7.62095L7.81823 8.03469C7.00468 8.84824 6.91315 10.1362 7.60347 11.0566L9.5455 13.646C9.88912 14.1042 10.2961 14.5112 10.7543 14.8548L13.3437 16.7968C14.2641 17.4871 15.5521 17.3956 16.3656 16.5821L16.7793 16.1683C17.4537 15.494 17.4537 14.4006 16.7793 13.7262L16.6227 13.5696C16.0348 12.9817 15.0817 12.9817 14.4939 13.5696C14.0357 14.0277 13.3358 14.1413 12.7563 13.8515L12.0569 13.5018C11.5556 13.2512 11.1491 12.8447 10.8985 12.3434L10.5488 11.644C10.259 11.0645 10.3726 10.3646 10.8307 9.90641C11.4186 9.31856 11.4186 8.36546 10.8307 7.77761L10.6741 7.62095C9.99971 6.94659 8.90634 6.94659 8.23197 7.62095Z" fill="url(#paint0_linear_57_8162)"/>
</g>
<defs>
<filter id="filter0_di_57_8162" x="0" y="0" width="28" height="28" filterUnits="userSpaceOnUse" color-interpolation-filters="sRGB">
<feFlood flood-opacity="0" result="BackgroundImageFix"/>
<feColorMatrix in="SourceAlpha" type="matrix" values="0 0 0 0 0 0 0 0 0 0 0 0 0 0 0 0 0 0 127 0" result="hardAlpha"/>
<feOffset dx="2" dy="2"/>
<feGaussianBlur stdDeviation="2"/>
<feComposite in2="hardAlpha" operator="out"/>
<feColorMatrix type="matrix" values="0 0 0 0 0.6625 0 0 0 0 0.609132 0 0 0 0 0.502396 0 0 0 0.5 0"/>
<feBlend mode="normal" in2="BackgroundImageFix" result="effect1_dropShadow_57_8162"/>
<feBlend mode="normal" in="SourceGraphic" in2="effect1_dropShadow_57_8162" result="shape"/>
<feColorMatrix in="SourceAlpha" type="matrix" values="0 0 0 0 0 0 0 0 0 0 0 0 0 0 0 0 0 0 127 0" result="hardAlpha"/>
<feOffset dx="-2" dy="-2"/>
<feGaussianBlur stdDeviation="2.5"/>
<feComposite in2="hardAlpha" operator="arithmetic" k2="-1" k3="1"/>
<feColorMatrix type="matrix" values="0 0 0 0 0.241667 0 0 0 0 0.101145 0 0 0 0 0.0714931 0 0 0 0.8 0"/>
<feBlend mode="normal" in2="shape" result="effect2_innerShadow_57_8162"/>
</filter>
<linearGradient id="paint0_linear_57_8162" x1="8.25" y1="7" x2="14.1037" y2="14.3171" gradientUnits="userSpaceOnUse">
<stop stop-color="#A73822"/>
<stop offset="1" stop-color="#881903"/>
<stop offset="1" stop-color="#881903"/>
</linearGradient>
</defs>
</svg>
